<?xml version="1.0" encoding="utf-8"?>
<!-- Generator: Adobe Illustrator 13.0.2, SVG Export Plug-In . SVG Version: 6.00 Build 14948)  -->
<!DOCTYPE svg PUBLIC "-//W3C//DTD SVG 1.1//EN" "http://www.w3.org/Graphics/SVG/1.1/DTD/svg11.dtd">
<svg version="1.1" id="Layer_2" xmlns="http://www.w3.org/2000/svg" xmlns:xlink="http://www.w3.org/1999/xlink" x="0px" y="0px"
	 width="128px" height="128px" viewBox="0 0 128 128" enable-background="new 0 0 128 128" xml:space="preserve">
<path fill="#FFFFFF" d="M128,117.199c0,5.965-4.835,10.801-10.8,10.801H10.8C4.835,128,0,123.164,0,117.199V10.8
	C0,4.835,4.835,0,10.8,0h106.4c5.965,0,10.8,4.835,10.8,10.8V117.199z"/>
<path fill="none" stroke="#565758" stroke-width="14" stroke-linecap="round" d="M12.805,115.234v-93.82
	c0-4.784,3.878-8.661,8.661-8.661h85.065c4.785,0,8.662,3.877,8.662,8.661l0.088,93.814"/>
<path fill="#FCD17D" d="M34.024,102.328c-3.846,0-6.967-2.921-6.967-6.524l0,0c0-3.604,3.121-6.525,6.967-6.525H93.59
	c3.848,0,6.967,2.922,6.967,6.525l0,0c0,3.604-3.119,6.524-6.967,6.524H34.024z"/>
</svg>
